<svg t="1754876604723" class="icon" viewBox="0 0 1024 1024" version="1.1" xmlns="http://www.w3.org/2000/svg" p-id="8100" width="200" height="200"><path d="M537.6 329.6a107.2 107.2 0 1 0 0 214.4 107.2 107.2 0 0 0 0-214.4z m0 180.8c-41.6 0-75.2-33.6-75.2-75.2s33.6-75.2 75.2-75.2 75.2 33.6 75.2 75.2-33.6 75.2-75.2 75.2z"  p-id="8101"></path><path d="M844.8 723.2l-72-124.8c89.6-129.6 57.6-307.2-72-396.8S393.6 144 302.4 273.6c-67.2 97.6-67.2 227.2 0 324.8l-72 124.8c-9.6 16-3.2 35.2 11.2 43.2 4.8 3.2 11.2 4.8 17.6 4.8l84.8-4.8 38.4 76.8c4.8 11.2 16 17.6 27.2 17.6h1.6c11.2 0 22.4-6.4 27.2-16L512 720c8 0 17.6 1.6 27.2 1.6s17.6 0 27.2-1.6l72 123.2c6.4 9.6 16 16 27.2 16h1.6c11.2 0 22.4-6.4 27.2-17.6l38.4-76.8 84.8 4.8c11.2 0 22.4-4.8 28.8-14.4 4.8-9.6 4.8-22.4-1.6-32z m-430.4 36.8l-20.8-41.6c-6.4-11.2-17.6-19.2-30.4-17.6l-46.4 3.2 32-54.4c28.8 25.6 62.4 44.8 97.6 57.6l-32 52.8z m-97.6-323.2c0-121.6 99.2-222.4 220.8-222.4 121.6 0 222.4 99.2 222.4 220.8 0 121.6-99.2 222.4-220.8 222.4-123.2 0-222.4-99.2-222.4-220.8z m396.8 264c-12.8-1.6-25.6 6.4-30.4 17.6l-20.8 41.6-32-54.4c36.8-12.8 68.8-32 97.6-57.6l32 54.4-46.4-1.6z"  p-id="8102"></path></svg>