<svg t="1770451267161" class="icon" viewBox="0 0 1024 1024" version="1.1" xmlns="http://www.w3.org/2000/svg" p-id="5032" width="200" height="200"><path d="M925.859307 516.069689c-6.916527 0-13.899568-2.099824-19.925818-6.471388L511.999488 224.273926 118.064464 509.5983c-15.208377 11.042497-36.482913 7.627724-47.504944-7.587815-11.015891-15.214517-7.614421-36.489052 7.601118-47.504944l413.886425-299.781644c11.906168-8.636704 27.998681-8.636704 39.904849 0l413.887448 299.781644c15.214517 11.015891 18.615986 32.290427 7.601118 47.504944C946.782849 511.193635 936.397315 516.069689 925.859307 516.069689z" fill="#CCCCCC" p-id="5033"></path><path d="M827.579957 875.753631 604.764242 875.753631c-18.789948 0-34.017768-15.22782-34.017768-34.016745L570.746474 590.190827 453.212594 590.190827l0 251.545036c0 18.788925-15.22782 34.016745-34.017768 34.016745L196.404694 875.752608c-18.789948 0-34.017768-15.22782-34.017768-34.016745L162.386926 410.853345c0-18.788925 15.22782-34.017768 34.017768-34.017768 18.788925 0 34.017768 15.228843 34.017768 34.017768L230.422462 807.719118l154.753573 0L385.176035 556.173059c0-18.789948 15.22782-34.017768 34.017768-34.017768l185.569416 0c18.788925 0 34.017768 15.226796 34.017768 34.017768L638.780986 807.719118l154.780179 0L793.561166 410.853345c0-18.788925 15.228843-34.017768 34.017768-34.017768s34.017768 15.228843 34.017768 34.017768l0 430.882518C861.598748 860.525811 846.369905 875.753631 827.579957 875.753631z" fill="#CCCCCC" p-id="5034"></path></svg>