<svg t="1770456671004" class="icon" viewBox="0 0 1024 1024" version="1.1" xmlns="http://www.w3.org/2000/svg" p-id="10859" width="200" height="200"><path d="M725.312 392.512L947.84 236.8a21.312 21.312 0 0 1 33.536 17.472v515.456a21.376 21.376 0 0 1-33.536 17.472l-222.464-155.712v179.2a42.688 42.688 0 0 1-42.624 42.624H85.312a42.688 42.688 0 0 1-42.624-42.624V213.312c0-23.552 19.072-42.624 42.624-42.624h597.376c23.552 0 42.624 19.072 42.624 42.624v179.2z m0 134.784L896 646.784V377.152L725.312 496.64v30.656zM128 256v512h512V256H128z m85.312 85.312h85.376v85.376H213.312V341.312z" fill="#909399" p-id="10860"></path></svg>