<svg t="1770453641379" class="icon" viewBox="0 0 1024 1024" version="1.1" xmlns="http://www.w3.org/2000/svg" p-id="8030" width="200" height="200"><path d="M790.428235 135.737598a111.649932 111.649932 0 0 0-38.630577 6.852356 248.293464 248.293464 0 0 1-24.355778 197.499109 111.884176 111.884176 0 1 0 62.986355-204.351465zM983.741988 630.85697l-59.266666-225.958397a45.274088 45.274088 0 0 0-65.004243-28.724577 147.224043 147.224043 0 0 1-138.573932 0.615244 45.155555 45.155555 0 0 0-59.379555 16.425333 123.692354 123.692354 0 0 1 13.998222-0.835378 128.024465 128.024465 0 0 1 123.638732 95.664866l52.397377 199.768175H939.799989a45.429311 45.429311 0 0 0 43.941999-56.955266zM233.569931 135.737598a111.649932 111.649932 0 0 1 38.633399 6.852356 248.290641 248.290641 0 0 0 24.355778 197.499109A111.884176 111.884176 0 1 1 233.567108 135.740421zM40.256177 630.85697l59.266666-225.958397a45.274088 45.274088 0 0 1 65.007066-28.724577 147.224043 147.224043 0 0 0 138.57111 0.615244 45.155555 45.155555 0 0 1 59.379554 16.425333 123.692354 123.692354 0 0 0-13.995399-0.835378 128.024465 128.024465 0 0 0-123.641554 95.664866l-52.394555 199.768175h-88.250888a45.429311 45.429311 0 0 1-43.942-56.955266z" fill="#231815" p-id="8031"></path><path d="M513.571061 213.563197m-203.411665 0a203.411664 203.411664 0 1 0 406.823329 0 203.411664 203.411664 0 1 0-406.823329 0Z" fill="#231815" p-id="8032"></path><path d="M865.02239 910.2993l-107.749621-410.799839c-13.464822-51.336222-71.509466-77.486932-118.183377-52.2224a267.65673 267.65673 0 0 1-251.931308 1.120423c-46.682377-24.731133-104.252888 1.391356-117.652798 52.493332l-107.385555 409.408484a82.592332 82.592332 0 0 0 79.888644 103.547332h543.125371a82.592332 82.592332 0 0 0 79.888644-103.547332zM651.679326 550.446216l-96.977199 65.275177a9.462911 9.462911 0 0 0-2.215445 13.620044l14.777156 19.213689a9.462911 9.462911 0 0 1 0.200377 11.271955l-18.525066 25.936222a9.462911 9.462911 0 0 0-1.433689 7.964311l40.400111 149.724531a9.462911 9.462911 0 0 1-1.865489 8.523111l-65.198977 78.237644a9.462911 9.462911 0 0 1-14.540089 0l-65.198977-78.237644a9.462911 9.462911 0 0 1-1.865489-8.523111l40.400111-149.724531a9.462911 9.462911 0 0 0-1.436511-7.967133l-18.522244-25.936222a9.462911 9.462911 0 0 1 0.197555-11.269133l14.779978-19.213689a9.462911 9.462911 0 0 0-2.215445-13.620044l-96.980021-65.275177a9.462911 9.462911 0 0 1 8.681156-16.684978l126.031976 48.474488a9.460089 9.460089 0 0 0 6.795911 0l126.029154-48.474488a9.462911 9.462911 0 0 1 8.681156 16.684978z" fill="#231815" p-id="8033"></path></svg>